<svg width="38" height="38" viewBox="0 0 38 38" fill="none" xmlns="http://www.w3.org/2000/svg">
<path d="M4.75 4.75L33.25 33.25" stroke="black" stroke-width="3.66667" stroke-linecap="round" stroke-linejoin="round"/>
<path d="M16.7581 16.7627C16.1639 17.3565 15.8299 18.162 15.8296 19.002C15.8293 19.842 16.1627 20.6477 16.7565 21.2419C17.3503 21.8361 18.1558 22.1701 18.9958 22.1704C19.8358 22.1707 20.6415 21.8373 21.2357 21.2435" stroke="black" stroke-width="3.66667" stroke-linecap="round" stroke-linejoin="round"/>
<path d="M14.8246 8.49451C16.1822 8.10616 17.5878 7.9116 18.9998 7.9166C25.3332 7.9166 30.6104 11.6105 34.8332 18.9999C33.6013 21.1548 32.2808 22.9963 30.8701 24.5226M27.4818 27.4692C24.8993 29.2108 22.0747 30.0833 18.9998 30.0833C12.6665 30.0833 7.38925 26.3893 3.1665 18.9999C5.33409 15.2078 7.77875 12.3895 10.5005 10.5433" stroke="black" stroke-width="3.66667" stroke-linecap="round" stroke-linejoin="round"/>
</svg>
