<svg width="24" height="24" viewBox="0 0 24 24" fill="none" xmlns="http://www.w3.org/2000/svg">
<path d="M17 11H7C5.89543 11 5 11.8954 5 13V19C5 20.1046 5.89543 21 7 21H17C18.1046 21 19 20.1046 19 19V13C19 11.8954 18.1046 11 17 11Z" stroke="#42CD00" stroke-width="2.33333" stroke-linecap="round" stroke-linejoin="round"/>
<path d="M8 11V7C8 5.93913 8.42143 4.92172 9.17157 4.17157C9.92172 3.42143 10.9391 3 12 3C13.0609 3 14.0783 3.42143 14.8284 4.17157C15.5786 4.92172 16 5.93913 16 7V11" stroke="#42CD00" stroke-width="2.33333" stroke-linecap="round" stroke-linejoin="round"/>
</svg>
