<svg width="321" height="62" viewBox="0 0 321 62" fill="none" xmlns="http://www.w3.org/2000/svg">
<path d="M19.3693 10.9606C21.9555 10.9606 24.2544 11.5353 26.2659 12.6847C28.2774 13.7931 29.8373 15.4557 30.9457 17.6724C32.0951 19.8481 32.6698 22.4754 32.6698 25.5542V45.5665H24.0491V26.7242C24.0491 24.0148 23.3718 21.9417 22.0171 20.5049C20.6624 19.0271 18.8151 18.2882 16.4752 18.2882C14.0943 18.2882 12.2059 19.0271 10.8102 20.5049C9.45551 21.9417 8.77817 24.0148 8.77817 26.7242V45.5665H0.157471V0H8.77817V15.702C9.88654 14.2241 11.3644 13.0747 13.2117 12.2537C15.059 11.3916 17.1115 10.9606 19.3693 10.9606Z" fill="black"/>
<path d="M69.5007 27.771C69.5007 29.0025 69.4186 30.1109 69.2544 31.0961H44.3159C44.5212 33.5591 45.3832 35.4885 46.9021 36.8843C48.421 38.28 50.2888 38.9779 52.5056 38.9779C55.7076 38.9779 57.9859 37.6026 59.3406 34.8522H68.6386C67.6534 38.1363 65.765 40.8457 62.9736 42.9803C60.1821 45.0739 56.7544 46.1207 52.6903 46.1207C49.4062 46.1207 46.4506 45.4023 43.8233 43.9655C41.2371 42.4877 39.2051 40.4146 37.7272 37.7463C36.2905 35.078 35.5721 31.9992 35.5721 28.5099C35.5721 24.9795 36.2905 21.8801 37.7272 19.2118C39.164 16.5435 41.1755 14.491 43.7617 13.0542C46.3479 11.6174 49.3241 10.899 52.6903 10.899C55.9333 10.899 58.8274 11.5969 61.3726 12.9926C63.9588 14.3883 65.9498 16.3793 67.3455 18.9655C68.7823 21.5107 69.5007 24.4458 69.5007 27.771ZM60.5721 25.3079C60.531 23.0911 59.7305 21.326 58.1706 20.0123C56.6107 18.6576 54.7018 17.9803 52.444 17.9803C50.3094 17.9803 48.5031 18.6371 47.0253 19.9508C45.5885 21.2233 44.7059 23.009 44.3775 25.3079H60.5721Z" fill="black"/>
<path d="M81.3349 0V45.5665H72.7142V0H81.3349Z" fill="black"/>
<path d="M95.394 0V45.5665H86.7733V0H95.394Z" fill="black"/>
<path d="M115.98 46.1207C112.696 46.1207 109.741 45.4023 107.113 43.9655C104.486 42.4877 102.413 40.4146 100.894 37.7463C99.4162 35.078 98.6773 31.9992 98.6773 28.5099C98.6773 25.0205 99.4367 21.9417 100.956 19.2734C102.516 16.6051 104.63 14.5526 107.298 13.1158C109.966 11.6379 112.942 10.899 116.227 10.899C119.511 10.899 122.487 11.6379 125.155 13.1158C127.823 14.5526 129.917 16.6051 131.436 19.2734C132.996 21.9417 133.776 25.0205 133.776 28.5099C133.776 31.9992 132.975 35.078 131.374 37.7463C129.814 40.4146 127.68 42.4877 124.97 43.9655C122.302 45.4023 119.305 46.1207 115.98 46.1207ZM115.98 38.6084C117.54 38.6084 118.997 38.2389 120.352 37.5C121.748 36.7201 122.856 35.5706 123.677 34.0517C124.498 32.5329 124.909 30.6856 124.909 28.5099C124.909 25.2668 124.047 22.7833 122.323 21.0591C120.64 19.2939 118.566 18.4113 116.103 18.4113C113.64 18.4113 111.567 19.2939 109.884 21.0591C108.242 22.7833 107.421 25.2668 107.421 28.5099C107.421 31.7529 108.222 34.257 109.823 36.0222C111.465 37.7463 113.517 38.6084 115.98 38.6084Z" fill="black"/>
<path d="M150.075 46.1207C147.283 46.1207 144.779 45.6281 142.562 44.6429C140.346 43.6166 138.581 42.2414 137.267 40.5173C135.994 38.7931 135.296 36.8843 135.173 34.7907H143.856C144.02 36.1043 144.656 37.1921 145.764 38.0542C146.914 38.9163 148.33 39.3473 150.013 39.3473C151.655 39.3473 152.928 39.0189 153.831 38.3621C154.775 37.7053 155.247 36.8637 155.247 35.8375C155.247 34.7291 154.673 33.9081 153.523 33.3744C152.415 32.7997 150.629 32.1839 148.166 31.5271C145.621 30.9113 143.527 30.2751 141.885 29.6182C140.284 28.9614 138.888 27.9557 137.698 26.601C136.549 25.2463 135.974 23.4196 135.974 21.1207C135.974 19.2324 136.507 17.5082 137.575 15.9483C138.683 14.3883 140.243 13.1568 142.255 12.2537C144.307 11.3506 146.709 10.899 149.459 10.899C153.523 10.899 156.766 11.9253 159.188 13.9778C161.61 15.9893 162.944 18.7192 163.191 22.1675H154.939C154.816 20.8128 154.241 19.7455 153.215 18.9655C152.23 18.1445 150.896 17.734 149.213 17.734C147.653 17.734 146.442 18.0214 145.58 18.5961C144.759 19.1708 144.348 19.9713 144.348 20.9975C144.348 22.147 144.923 23.0296 146.072 23.6453C147.222 24.22 149.007 24.8153 151.429 25.431C153.893 26.0468 155.925 26.6831 157.526 27.3399C159.127 27.9967 160.502 29.023 161.651 30.4187C162.842 31.7734 163.457 33.5797 163.498 35.8375C163.498 37.8079 162.944 39.5731 161.836 41.133C160.769 42.693 159.209 43.9245 157.156 44.8276C155.145 45.6897 152.784 46.1207 150.075 46.1207Z" fill="black"/>
<path d="M214.787 11.4532L204.811 45.5665H195.513L189.294 21.7365L183.075 45.5665H173.715L163.678 11.4532H172.422L178.457 37.4384L184.984 11.4532H194.097L200.501 37.3769L206.536 11.4532H214.787Z" fill="black"/>
<path d="M214.156 28.3867C214.156 24.9384 214.833 21.8801 216.188 19.2118C217.583 16.5435 219.451 14.491 221.791 13.0542C224.172 11.6174 226.82 10.899 229.734 10.899C232.28 10.899 234.496 11.4122 236.385 12.4384C238.314 13.4647 239.854 14.7578 241.003 16.3177V11.4532H249.685V45.5665H241.003V40.5788C239.895 42.1798 238.355 43.514 236.385 44.5813C234.455 45.6076 232.218 46.1207 229.673 46.1207C226.799 46.1207 224.172 45.3818 221.791 43.904C219.451 42.4261 217.583 40.3531 216.188 37.6848C214.833 34.9754 214.156 31.876 214.156 28.3867ZM241.003 28.5099C241.003 26.4163 240.592 24.6306 239.771 23.1527C238.95 21.6338 237.842 20.4844 236.446 19.7044C235.051 18.8834 233.552 18.4729 231.951 18.4729C230.35 18.4729 228.872 18.8629 227.518 19.6429C226.163 20.4228 225.055 21.5723 224.193 23.0911C223.372 24.569 222.961 26.3342 222.961 28.3867C222.961 30.4393 223.372 32.2455 224.193 33.8054C225.055 35.3243 226.163 36.4943 227.518 37.3153C228.913 38.1363 230.391 38.5468 231.951 38.5468C233.552 38.5468 235.051 38.1568 236.446 37.3769C237.842 36.5559 238.95 35.4064 239.771 33.9286C240.592 32.4097 241.003 30.6035 241.003 28.5099Z" fill="black"/>
<path d="M263.647 16.3793C264.755 14.8194 266.274 13.5263 268.203 12.5C270.174 11.4327 272.411 10.899 274.915 10.899C277.83 10.899 280.457 11.6174 282.797 13.0542C285.178 14.491 287.046 16.5435 288.4 19.2118C289.796 21.8391 290.494 24.8974 290.494 28.3867C290.494 31.876 289.796 34.9754 288.4 37.6848C287.046 40.3531 285.178 42.4261 282.797 43.904C280.457 45.3818 277.83 46.1207 274.915 46.1207C272.411 46.1207 270.194 45.6076 268.265 44.5813C266.377 43.555 264.837 42.2619 263.647 40.702V61.8227H255.026V11.4532H263.647V16.3793ZM281.689 28.3867C281.689 26.3342 281.258 24.569 280.395 23.0911C279.574 21.5723 278.466 20.4228 277.07 19.6429C275.716 18.8629 274.238 18.4729 272.637 18.4729C271.077 18.4729 269.599 18.8834 268.203 19.7044C266.849 20.4844 265.74 21.6338 264.878 23.1527C264.057 24.6716 263.647 26.4573 263.647 28.5099C263.647 30.5624 264.057 32.3481 264.878 33.867C265.74 35.3859 266.849 36.5559 268.203 37.3769C269.599 38.1568 271.077 38.5468 272.637 38.5468C274.238 38.5468 275.716 38.1363 277.07 37.3153C278.466 36.4943 279.574 35.3243 280.395 33.8054C281.258 32.2866 281.689 30.4803 281.689 28.3867Z" fill="black"/>
<path d="M306.734 46.1207C303.942 46.1207 301.438 45.6281 299.221 44.6429C297.005 43.6166 295.24 42.2414 293.926 40.5173C292.653 38.7931 291.955 36.8843 291.832 34.7907H300.515C300.679 36.1043 301.315 37.1921 302.423 38.0542C303.573 38.9163 304.989 39.3473 306.672 39.3473C308.314 39.3473 309.587 39.0189 310.49 38.3621C311.434 37.7053 311.906 36.8637 311.906 35.8375C311.906 34.7291 311.332 33.9081 310.182 33.3744C309.074 32.7997 307.288 32.1839 304.825 31.5271C302.28 30.9113 300.186 30.2751 298.544 29.6182C296.943 28.9614 295.547 27.9557 294.357 26.601C293.208 25.2463 292.633 23.4196 292.633 21.1207C292.633 19.2324 293.166 17.5082 294.234 15.9483C295.342 14.3883 296.902 13.1568 298.914 12.2537C300.966 11.3506 303.368 10.899 306.118 10.899C310.182 10.899 313.425 11.9253 315.847 13.9778C318.269 15.9893 319.603 18.7192 319.85 22.1675H311.598C311.475 20.8128 310.9 19.7455 309.874 18.9655C308.889 18.1445 307.555 17.734 305.872 17.734C304.312 17.734 303.101 18.0214 302.239 18.5961C301.418 19.1708 301.007 19.9713 301.007 20.9975C301.007 22.147 301.582 23.0296 302.731 23.6453C303.881 24.22 305.666 24.8153 308.088 25.431C310.552 26.0468 312.584 26.6831 314.185 27.3399C315.786 27.9967 317.161 29.023 318.31 30.4187C319.501 31.7734 320.116 33.5797 320.157 35.8375C320.157 37.8079 319.603 39.5731 318.495 41.133C317.428 42.693 315.868 43.9245 313.815 44.8276C311.804 45.6897 309.443 46.1207 306.734 46.1207Z" fill="black"/>
</svg>
