<svg width="32" height="32" viewBox="0 0 32 32" fill="none" xmlns="http://www.w3.org/2000/svg">
<path d="M31.5177 19.8705C29.3808 28.442 20.6992 33.6584 12.1267 31.521C3.55778 29.3841 -1.65868 20.702 0.479176 12.1312C2.61515 3.5587 11.2967 -1.65814 19.8666 0.478775C28.4385 2.61569 33.6546 11.2987 31.5175 19.8706L31.5176 19.8705H31.5177Z" fill="#F3BA2F"/>
<path fill-rule="evenodd" clip-rule="evenodd" d="M16.0001 10.1548L11.857 14.2979L11.8571 14.2978L9.44652 11.8871L16.0001 5.3335L22.5558 11.8891L20.1452 14.2997L16.0001 10.1548ZM7.74425 13.5891L5.3335 16.0002L7.74408 18.4104L10.1548 15.9997L7.74425 13.5891ZM11.857 17.7026L16.0001 21.8455L20.1451 17.7007L22.5571 20.1101L22.5559 20.1113L16.0001 26.6668L9.44654 20.1132L9.44313 20.1098L11.857 17.7026ZM24.2562 13.5904L21.8455 16.0011L24.2561 18.4117L26.6668 16.001L24.2562 13.5904Z" fill="white"/>
<path d="M18.4451 15.9989H18.4462L16.0002 13.5527L14.1922 15.3602L13.9845 15.568L13.5561 15.9964L13.5527 15.9998L13.5561 16.0033L16.0002 18.4476L18.4463 16.0015L18.4475 16.0001L18.4453 15.9989" fill="white"/>
</svg>
