<svg width="32" height="32" viewBox="0 0 32 32" fill="none" xmlns="http://www.w3.org/2000/svg">
<path d="M31.5211 19.8705C29.3842 28.442 20.7027 33.6584 12.1301 31.521C3.5612 29.3841 -1.65526 20.702 0.482594 12.1312C2.61857 3.5587 11.3001 -1.65814 19.87 0.478775C28.4419 2.61569 33.658 11.2987 31.5209 19.8706L31.5211 19.8705H31.5211Z" fill="#F7931A"/>
<path fill-rule="evenodd" clip-rule="evenodd" d="M23.0568 13.7204C23.3753 11.5912 21.7542 10.4466 19.5375 9.68311L20.2567 6.79886L18.5009 6.36137L17.8009 9.16969C17.3393 9.05457 16.8653 8.94609 16.3942 8.83856L17.0993 6.01171L15.3447 5.57422L14.6252 8.45754C14.2432 8.37057 13.868 8.28462 13.5041 8.19406L13.5061 8.18499L11.0849 7.58037L10.6179 9.45561C10.6179 9.45561 11.9205 9.7542 11.893 9.77258C12.604 9.95003 12.7326 10.4207 12.7112 10.7937L11.8921 14.0796C11.941 14.092 12.0045 14.11 12.0746 14.1381L12.0236 14.1254C11.9803 14.1146 11.9353 14.1033 11.889 14.0922L10.7409 18.6952C10.654 18.9113 10.4334 19.2354 9.93636 19.1123C9.95396 19.1378 8.66026 18.7939 8.66026 18.7939L7.78857 20.8036L10.0734 21.3732C10.3236 21.4359 10.5708 21.5004 10.8156 21.5642C10.9866 21.6088 11.1564 21.653 11.3252 21.6962L10.5986 24.6135L12.3523 25.051L13.0718 22.1646C13.5509 22.2947 14.0158 22.4147 14.471 22.5278L13.7539 25.4005L15.5098 25.838L16.2362 22.9261C19.2301 23.4927 21.4813 23.2643 22.4288 20.5563C23.1924 18.3761 22.3908 17.1185 20.8158 16.2984C21.963 16.0339 22.8271 15.2793 23.0575 13.7207L23.0569 13.7203L23.0568 13.7204ZM19.0454 19.3456C18.5475 21.3459 15.4165 20.5189 13.984 20.1405C13.8551 20.1065 13.74 20.0761 13.6417 20.0517L14.6059 16.1867C14.7256 16.2166 14.8719 16.2494 15.0376 16.2866L15.0376 16.2866C16.5194 16.6192 19.5554 17.3005 19.0454 19.3456H19.0454ZM15.3348 14.4928C16.5291 14.8115 19.1346 15.5069 19.5883 13.6888H19.5885C20.0518 11.8294 17.5198 11.2689 16.2831 10.9951C16.144 10.9643 16.0213 10.9371 15.9211 10.9121L15.047 14.4174C15.1295 14.438 15.2263 14.4638 15.3348 14.4928Z" fill="white"/>
</svg>
