<svg width="32" height="32" viewBox="0 0 32 32" fill="none" xmlns="http://www.w3.org/2000/svg">
<circle cx="16" cy="16" r="16" fill="black"/>
<path d="M9.91844 19.7903C10.0293 19.6794 10.1818 19.6147 10.3435 19.6147H25.0068C25.2747 19.6147 25.4087 19.9381 25.2193 20.1275L22.3227 23.0242C22.2118 23.1351 22.0594 23.1997 21.8977 23.1997H7.23433C6.96638 23.1997 6.8324 22.8763 7.02181 22.6869L9.91844 19.7903Z" fill="url(#paint0_linear_557_368)"/>
<path d="M9.91844 8.97536C10.0339 8.86448 10.1864 8.7998 10.3435 8.7998H25.0068C25.2747 8.7998 25.4087 9.12319 25.2193 9.31261L22.3227 12.2092C22.2118 12.3201 22.0594 12.3848 21.8977 12.3848H7.23433C6.96638 12.3848 6.8324 12.0614 7.02181 11.872L9.91844 8.97536Z" fill="url(#paint1_linear_557_368)"/>
<path d="M22.3227 14.3484C22.2118 14.2375 22.0594 14.1729 21.8977 14.1729H7.23433C6.96638 14.1729 6.8324 14.4962 7.02181 14.6857L9.91844 17.5823C10.0293 17.6932 10.1818 17.7578 10.3435 17.7578H25.0068C25.2747 17.7578 25.4087 17.4344 25.2193 17.245L22.3227 14.3484Z" fill="url(#paint2_linear_557_368)"/>
<defs>
<linearGradient id="paint0_linear_557_368" x1="-26.2086" y1="6.07939" x2="-26.5987" y2="25.7112" gradientUnits="userSpaceOnUse">
<stop stop-color="#00FFA3"/>
<stop offset="1" stop-color="#DC1FFF"/>
</linearGradient>
<linearGradient id="paint1_linear_557_368" x1="-30.6459" y1="3.7628" x2="-31.0361" y2="23.3946" gradientUnits="userSpaceOnUse">
<stop stop-color="#00FFA3"/>
<stop offset="1" stop-color="#DC1FFF"/>
</linearGradient>
<linearGradient id="paint2_linear_557_368" x1="-28.4414" y1="4.91395" x2="-28.8315" y2="24.5457" gradientUnits="userSpaceOnUse">
<stop stop-color="#00FFA3"/>
<stop offset="1" stop-color="#DC1FFF"/>
</linearGradient>
</defs>
</svg>
