<svg width="32" height="32" viewBox="0 0 32 32" fill="none" xmlns="http://www.w3.org/2000/svg">
<path d="M31.5177 19.8705C29.3808 28.442 20.6992 33.6584 12.1267 31.521C3.55778 29.3841 -1.65868 20.702 0.479177 12.1312C2.61515 3.5587 11.2967 -1.65814 19.8666 0.478775C28.4385 2.61569 33.6546 11.2987 31.5175 19.8706L31.5176 19.8705H31.5177Z" fill="#50AF95"/>
<path fill-rule="evenodd" clip-rule="evenodd" d="M18.0244 17.8139C17.9112 17.8224 17.3267 17.8573 16.0228 17.8573C14.9858 17.8573 14.2495 17.8262 13.9911 17.8139C9.98334 17.6376 6.99188 16.94 6.99188 16.1046C6.99188 15.2693 9.98334 14.5726 13.9911 14.3935V17.1191C14.2532 17.1379 15.0037 17.1823 16.0408 17.1823C17.2852 17.1823 17.9084 17.1304 18.0206 17.12V14.3954C22.0199 14.5736 25.0048 15.2712 25.0048 16.1046C25.0048 16.9381 22.0209 17.6357 18.0206 17.813L18.0244 17.8139ZM18.0244 14.1134V11.6744H23.6057V7.95508H8.40985V11.6744H13.9902V14.1124C9.45446 14.3208 6.04346 15.2193 6.04346 16.2959C6.04346 17.3726 9.45446 18.2701 13.9902 18.4794V26.2951H18.0235V18.4766C22.5488 18.2682 25.9542 17.3707 25.9542 16.295C25.9542 15.2193 22.5517 14.3217 18.0235 14.1124L18.0244 14.1134Z" fill="white"/>
</svg>
